<?xml version="1.0" encoding="utf-8"?>
<!-- Generator: Adobe Illustrator 26.5.0, SVG Export Plug-In . SVG Version: 6.00 Build 0)  -->
<svg version="1.1" id="Layer_1" xmlns="http://www.w3.org/2000/svg" xmlns:xlink="http://www.w3.org/1999/xlink" x="0px" y="0px"
	 viewBox="0 0 26 26" style="enable-background:new 0 0 26 26;" xml:space="preserve">
<style type="text/css">
	.st0{fill:#F66C0F;}
</style>
<path id="circle-check-solid" class="st0" d="M13,26c7.2,0,13-5.8,13-13S20.2,0,13,0S0,5.8,0,13S5.8,26,13,26z M18.7,10.6l-6.5,6.5
	c-0.5,0.5-1.2,0.5-1.7,0c0,0,0,0,0,0l-3.2-3.2c-0.5-0.5-0.5-1.3,0-1.7c0.5-0.5,1.2-0.5,1.7,0l2.4,2.4L17,8.9c0.5-0.5,1.2-0.5,1.7,0
	C19.2,9.3,19.2,10.1,18.7,10.6C18.7,10.6,18.7,10.6,18.7,10.6L18.7,10.6z"/>
</svg>
