<?xml version="1.0" encoding="utf-8"?>
<!-- Generator: Adobe Illustrator 26.5.0, SVG Export Plug-In . SVG Version: 6.00 Build 0)  -->
<svg version="1.1" id="Layer_1" xmlns="http://www.w3.org/2000/svg" xmlns:xlink="http://www.w3.org/1999/xlink" x="0px" y="0px"
	 viewBox="0 0 422.3 53.6" style="enable-background:new 0 0 422.3 53.6;" xml:space="preserve">
<style type="text/css">
	.st0{fill:none;stroke:#FFFFFF;}
	.st1{enable-background:new    ;}
	.st2{fill:#FFFFFF;}
	.st3{fill:none;stroke:#00727A;stroke-width:2;}
	.st4{fill:none;stroke:#00727A;stroke-width:2;stroke-linecap:round;}
</style>
<g id="Group_1204" transform="translate(-352 -3959)">
	<path id="Path_138" class="st0" d="M366.7,3970.7h392"/>
	<g class="st1">
		<path class="st2" d="M359.6,3994.2l-4.2,9.8h-1.4l4.2-9.6h-5.8v-1.2h7.1V3994.2z"/>
		<path class="st2" d="M361.1,3997.4c-0.2-0.2-0.3-0.4-0.3-0.7s0.1-0.5,0.3-0.7c0.2-0.2,0.4-0.3,0.7-0.3c0.2,0,0.5,0.1,0.6,0.3
			c0.2,0.2,0.3,0.4,0.3,0.7s-0.1,0.5-0.3,0.7c-0.2,0.2-0.4,0.3-0.6,0.3C361.5,3997.7,361.3,3997.6,361.1,3997.4z M361.1,4003.8
			c-0.2-0.2-0.3-0.4-0.3-0.7s0.1-0.5,0.3-0.7c0.2-0.2,0.4-0.3,0.7-0.3c0.2,0,0.5,0.1,0.6,0.3c0.2,0.2,0.3,0.4,0.3,0.7
			s-0.1,0.5-0.3,0.7c-0.2,0.2-0.4,0.3-0.6,0.3C361.5,4004.1,361.3,4004,361.1,4003.8z"/>
		<path class="st2" d="M370.7,4001.7h-4.6l-0.8,2.3h-1.4l3.8-10.4h1.6l3.8,10.4h-1.4L370.7,4001.7z M370.3,4000.6l-1.9-5.3l-1.9,5.3
			H370.3z"/>
		<path class="st2" d="M385.3,3993.6v10.4h-1.4v-7.7l-3.5,7.7h-1l-3.5-7.8v7.8h-1.4v-10.4h1.5l3.8,8.6l3.8-8.6H385.3z"/>
	</g>
	<g class="st1">
		<path class="st2" d="M447.6,3994.4v-1.2h2.8v10.8H449v-9.6H447.6z"/>
		<path class="st2" d="M453.6,3994.4c0.6-1,1.5-1.4,2.9-1.4c1.4,0,2.4,0.5,2.9,1.4s0.8,2.3,0.8,4c0,1.8-0.3,3.1-0.8,4.1
			s-1.5,1.5-2.9,1.5c-1.4,0-2.4-0.5-2.9-1.5s-0.8-2.3-0.8-4.1C452.7,3996.7,453,3995.4,453.6,3994.4z M458.7,3996.3
			c-0.1-0.6-0.4-1.1-0.7-1.5s-0.9-0.6-1.5-0.6c-0.7,0-1.2,0.2-1.6,0.6c-0.4,0.4-0.6,0.9-0.7,1.5c-0.1,0.6-0.2,1.3-0.2,2.2
			c0,0.9,0.1,1.7,0.2,2.3c0.1,0.6,0.3,1.1,0.7,1.5c0.4,0.4,0.9,0.6,1.6,0.6c0.7,0,1.2-0.2,1.5-0.6s0.6-0.9,0.7-1.5
			c0.1-0.6,0.2-1.4,0.2-2.3C458.9,3997.6,458.9,3996.9,458.7,3996.3z"/>
		<path class="st2" d="M462.1,3997.4c-0.2-0.2-0.3-0.4-0.3-0.7s0.1-0.5,0.3-0.7c0.2-0.2,0.4-0.3,0.7-0.3c0.2,0,0.5,0.1,0.6,0.3
			c0.2,0.2,0.3,0.4,0.3,0.7s-0.1,0.5-0.3,0.7c-0.2,0.2-0.4,0.3-0.6,0.3C462.5,3997.7,462.3,3997.6,462.1,3997.4z M462.1,4003.8
			c-0.2-0.2-0.3-0.4-0.3-0.7s0.1-0.5,0.3-0.7c0.2-0.2,0.4-0.3,0.7-0.3c0.2,0,0.5,0.1,0.6,0.3c0.2,0.2,0.3,0.4,0.3,0.7
			s-0.1,0.5-0.3,0.7c-0.2,0.2-0.4,0.3-0.6,0.3C462.5,4004.1,462.3,4004,462.1,4003.8z"/>
		<path class="st2" d="M471.7,4001.7h-4.6l-0.8,2.3h-1.4l3.8-10.4h1.6l3.8,10.4h-1.4L471.7,4001.7z M471.3,4000.6l-1.9-5.3l-1.9,5.3
			H471.3z"/>
		<path class="st2" d="M486.3,3993.6v10.4h-1.4v-7.7l-3.5,7.7h-1l-3.5-7.8v7.8h-1.4v-10.4h1.5l3.8,8.6l3.8-8.6H486.3z"/>
	</g>
	<g class="st1">
		<path class="st2" d="M550.7,3994.4v-1.2h2.8v10.8h-1.4v-9.6H550.7z"/>
		<path class="st2" d="M558.6,4000.4c0.7-0.7,1.3-1.3,1.8-2.1c0.5-0.7,0.7-1.4,0.7-2.1c0-0.7-0.2-1.2-0.5-1.5
			c-0.3-0.4-0.8-0.6-1.5-0.6c-0.7,0-1.2,0.2-1.6,0.6s-0.6,1-0.6,1.7h-1.3c0-1.1,0.4-2,1-2.6c0.6-0.6,1.5-0.9,2.5-0.9
			c1,0,1.8,0.3,2.5,0.9c0.6,0.6,0.9,1.4,0.9,2.4c0,0.8-0.2,1.6-0.7,2.4c-0.5,0.8-1.1,1.5-1.7,2.1c-0.6,0.6-1.4,1.3-2.4,2.1h5.2v1.1
			h-7.2v-1C556.9,4001.9,557.9,4001,558.6,4000.4z"/>
		<path class="st2" d="M564.4,3997.4c-0.2-0.2-0.3-0.4-0.3-0.7s0.1-0.5,0.3-0.7c0.2-0.2,0.4-0.3,0.7-0.3c0.2,0,0.5,0.1,0.6,0.3
			c0.2,0.2,0.3,0.4,0.3,0.7s-0.1,0.5-0.3,0.7c-0.2,0.2-0.4,0.3-0.6,0.3C564.8,3997.7,564.6,3997.6,564.4,3997.4z M564.4,4003.8
			c-0.2-0.2-0.3-0.4-0.3-0.7s0.1-0.5,0.3-0.7c0.2-0.2,0.4-0.3,0.7-0.3c0.2,0,0.5,0.1,0.6,0.3c0.2,0.2,0.3,0.4,0.3,0.7
			s-0.1,0.5-0.3,0.7c-0.2,0.2-0.4,0.3-0.6,0.3C564.8,4004.1,564.6,4004,564.4,4003.8z"/>
		<path class="st2" d="M574,3998.8c-0.6,0.6-1.5,0.9-2.7,0.9h-2v4.4h-1.4v-10.5h3.4c1.2,0,2.1,0.3,2.7,0.9c0.6,0.6,0.9,1.3,0.9,2.2
			C574.9,3997.5,574.6,3998.2,574,3998.8z M572.9,3998c0.4-0.3,0.5-0.8,0.5-1.4c0-1.3-0.7-1.9-2.2-1.9h-2v3.8h2
			C572,3998.5,572.6,3998.3,572.9,3998z"/>
		<path class="st2" d="M587.2,3993.6v10.4h-1.4v-7.7l-3.5,7.7h-1l-3.5-7.8v7.8h-1.4v-10.4h1.5l3.8,8.6l3.8-8.6H587.2z"/>
	</g>
	<g class="st1">
		<path class="st2" d="M654.4,3993.7c0.6-0.5,1.5-0.8,2.5-0.8c0.7,0,1.3,0.1,1.8,0.4c0.5,0.2,0.9,0.6,1.1,1c0.3,0.4,0.4,0.9,0.4,1.4
			c0,0.6-0.2,1.2-0.5,1.6c-0.4,0.5-0.8,0.7-1.4,0.9v0.1c0.7,0.2,1.2,0.5,1.5,0.9c0.4,0.5,0.6,1.1,0.6,1.8c0,0.6-0.1,1.1-0.4,1.5
			c-0.3,0.5-0.6,0.8-1.2,1.1c-0.5,0.3-1.1,0.4-1.9,0.4c-1.1,0-1.9-0.3-2.6-0.8c-0.7-0.6-1.1-1.3-1.1-2.4h1.3
			c0.1,0.6,0.3,1.1,0.7,1.5c0.4,0.4,1,0.6,1.7,0.6s1.2-0.2,1.6-0.5c0.4-0.4,0.5-0.8,0.5-1.4c0-0.8-0.3-1.3-0.8-1.6
			c-0.5-0.3-1.3-0.5-2.3-0.5h-0.3v-1.1h0.4c0.9,0,1.6-0.2,2.1-0.5c0.5-0.3,0.7-0.8,0.7-1.4c0-0.5-0.2-1-0.5-1.3
			c-0.3-0.3-0.8-0.5-1.5-0.5c-0.6,0-1.1,0.2-1.5,0.5c-0.4,0.3-0.6,0.8-0.7,1.3h-1.3C653.4,3995,653.7,3994.2,654.4,3993.7z"/>
		<path class="st2" d="M662.2,3997.4c-0.2-0.2-0.3-0.4-0.3-0.7s0.1-0.5,0.3-0.7s0.4-0.3,0.7-0.3c0.2,0,0.5,0.1,0.6,0.3
			c0.2,0.2,0.3,0.4,0.3,0.7s-0.1,0.5-0.3,0.7c-0.2,0.2-0.4,0.3-0.6,0.3C662.6,3997.7,662.3,3997.6,662.2,3997.4z M662.2,4003.8
			c-0.2-0.2-0.3-0.4-0.3-0.7s0.1-0.5,0.3-0.7s0.4-0.3,0.7-0.3c0.2,0,0.5,0.1,0.6,0.3c0.2,0.2,0.3,0.4,0.3,0.7s-0.1,0.5-0.3,0.7
			c-0.2,0.2-0.4,0.3-0.6,0.3C662.6,4004.1,662.3,4004,662.2,4003.8z"/>
		<path class="st2" d="M671.7,3998.8c-0.6,0.6-1.5,0.9-2.7,0.9h-2v4.4h-1.4v-10.5h3.4c1.2,0,2.1,0.3,2.7,0.9
			c0.6,0.6,0.9,1.3,0.9,2.2C672.6,3997.5,672.3,3998.2,671.7,3998.8z M670.6,3998c0.4-0.3,0.5-0.8,0.5-1.4c0-1.3-0.7-1.9-2.2-1.9h-2
			v3.8h2C669.7,3998.5,670.3,3998.3,670.6,3998z"/>
		<path class="st2" d="M684.9,3993.6v10.4h-1.4v-7.7l-3.5,7.7h-1l-3.5-7.8v7.8h-1.4v-10.4h1.5l3.8,8.6l3.8-8.6H684.9z"/>
	</g>
	<g class="st1">
		<path class="st2" d="M741.7,3997.4c-0.3-0.4-0.5-0.9-0.5-1.5c0-0.5,0.1-1,0.4-1.5c0.3-0.4,0.7-0.8,1.2-1c0.5-0.3,1.2-0.4,1.9-0.4
			c0.8,0,1.4,0.1,1.9,0.4c0.5,0.3,0.9,0.6,1.2,1c0.3,0.4,0.4,0.9,0.4,1.5c0,0.6-0.2,1.1-0.5,1.5c-0.3,0.4-0.7,0.8-1.3,1
			c0.6,0.2,1.1,0.5,1.5,1c0.4,0.5,0.5,1,0.5,1.7c0,0.7-0.2,1.2-0.5,1.7c-0.3,0.5-0.8,0.9-1.4,1.1s-1.3,0.4-2,0.4
			c-0.8,0-1.4-0.1-2-0.4s-1-0.6-1.3-1.1c-0.3-0.5-0.5-1.1-0.5-1.7c0-0.7,0.2-1.2,0.5-1.7c0.4-0.5,0.8-0.8,1.5-1
			C742.4,3998.1,742,3997.8,741.7,3997.4z M743,3999.5c-0.5,0.3-0.7,0.9-0.7,1.6c0,0.6,0.2,1.2,0.7,1.5c0.5,0.4,1.1,0.6,1.8,0.6
			c0.8,0,1.4-0.2,1.8-0.6c0.4-0.4,0.7-0.9,0.7-1.5c0-0.7-0.2-1.2-0.7-1.5c-0.5-0.4-1.1-0.5-1.8-0.5
			C744.1,3999,743.5,3999.1,743,3999.5z M746.4,3994.6c-0.4-0.3-1-0.5-1.6-0.5c-0.7,0-1.2,0.2-1.6,0.5c-0.4,0.3-0.6,0.8-0.6,1.4
			c0,0.6,0.2,1,0.6,1.4s1,0.5,1.6,0.5c0.7,0,1.2-0.2,1.6-0.5s0.6-0.8,0.6-1.4C747.1,3995.4,746.9,3995,746.4,3994.6z"/>
		<path class="st2" d="M750.5,3997.4c-0.2-0.2-0.3-0.4-0.3-0.7s0.1-0.5,0.3-0.7c0.2-0.2,0.4-0.3,0.7-0.3c0.2,0,0.5,0.1,0.6,0.3
			s0.3,0.4,0.3,0.7s-0.1,0.5-0.3,0.7c-0.2,0.2-0.4,0.3-0.6,0.3C750.9,3997.7,750.6,3997.6,750.5,3997.4z M750.5,4003.8
			c-0.2-0.2-0.3-0.4-0.3-0.7s0.1-0.5,0.3-0.7c0.2-0.2,0.4-0.3,0.7-0.3c0.2,0,0.5,0.1,0.6,0.3s0.3,0.4,0.3,0.7s-0.1,0.5-0.3,0.7
			c-0.2,0.2-0.4,0.3-0.6,0.3C750.9,4004.1,750.6,4004,750.5,4003.8z"/>
		<path class="st2" d="M760,3998.8c-0.6,0.6-1.5,0.9-2.7,0.9h-2v4.4h-1.4v-10.5h3.4c1.2,0,2.1,0.3,2.7,0.9c0.6,0.6,0.9,1.3,0.9,2.2
			C760.9,3997.5,760.6,3998.2,760,3998.8z M758.9,3998c0.4-0.3,0.5-0.8,0.5-1.4c0-1.3-0.7-1.9-2.2-1.9h-2v3.8h2
			C758,3998.5,758.6,3998.3,758.9,3998z"/>
		<path class="st2" d="M773.2,3993.6v10.4h-1.4v-7.7l-3.5,7.7h-1l-3.5-7.8v7.8h-1.4v-10.4h1.5l3.8,8.6l3.8-8.6H773.2z"/>
	</g>
	<g id="Group_1199">
		<g id="Ellipse_18" transform="translate(358 3959)">
			<circle class="st2" cx="10.7" cy="11.5" r="10.5"/>
			<circle class="st3" cx="10.7" cy="11.5" r="10.5"/>
		</g>
		<path id="Path_139" class="st4" d="M368.7,3963.8v8.2l-3.7,4.6"/>
	</g>
	<g id="Group_1200" transform="translate(98)">
		<g id="Ellipse_18-2" transform="translate(358 3959)">
			<circle class="st2" cx="10.7" cy="11.5" r="10.2"/>
			<circle class="st3" cx="10.7" cy="11.5" r="10.5"/>
		</g>
		<path id="Path_139-2" class="st4" d="M368.7,3963.8v8.2l-5.1-3.1"/>
	</g>
	<g id="Group_1201" transform="translate(195)">
		<g id="Ellipse_18-3" transform="translate(358 3959)">
			<circle class="st2" cx="10.7" cy="11.5" r="10.6"/>
			<circle class="st3" cx="10.7" cy="11.5" r="10.5"/>
		</g>
		<path id="Path_139-3_00000083064321620654647260000008859765184529694644_" class="st4" d="M368.7,3963.8v8.2"/>
	</g>
	<g id="Group_1202" transform="translate(293)">
		<g id="Ellipse_18-4" transform="translate(358 3959)">
			<circle class="st2" cx="10.7" cy="11.5" r="11.1"/>
			<circle class="st3" cx="10.7" cy="11.5" r="10.5"/>
		</g>
		<path id="Path_139-4" class="st4" d="M368.7,3963.8l-0.1,7.9h6"/>
	</g>
	<g id="Group_1203" transform="translate(390)">
		<g id="Ellipse_18-5" transform="translate(358 3959)">
			<circle class="st2" cx="10.7" cy="11.5" r="11"/>
			<circle class="st3" cx="10.7" cy="11.5" r="10.5"/>
		</g>
		<path id="Path_139-5" class="st4" d="M368.7,3963.8v8.2l-5.3,2.6"/>
	</g>
</g>
</svg>
