<?xml version="1.0" encoding="utf-8"?>
<!-- Generator: Adobe Illustrator 26.5.0, SVG Export Plug-In . SVG Version: 6.00 Build 0)  -->
<svg version="1.1" id="Layer_1" xmlns="http://www.w3.org/2000/svg" xmlns:xlink="http://www.w3.org/1999/xlink" x="0px" y="0px"
	 viewBox="0 0 162.2 162.2" style="enable-background:new 0 0 162.2 162.2;" xml:space="preserve">
<style type="text/css">
	.st0{fill:#028C95;}
	.st1{fill:#00ADB9;}
	.st2{fill:none;}
</style>
<g>
	<path class="st0" d="M156.3,98.3c-0.3-2.2-2-3.9-4.2-4.3l-6.8-1.4c-1.2-3.1-2.8-5.9-4.9-8.4l2.2-6.6c0.7-2.1,0.1-4.4-1.7-5.8
		c-1.1-0.8-2.2-1.6-3.4-2.3l-1.2-0.7c-1.2-0.7-2.4-1.2-3.6-1.8c-2.1-0.8-4.4-0.2-5.8,1.4l-4.6,5.2c-3.2-0.5-6.5-0.5-9.7,0l-4.6-5.2
		c-1.4-1.7-3.8-2.3-5.8-1.4c-1.2,0.5-2.4,1.1-3.6,1.8l-1.2,0.7c-1.2,0.7-2.3,1.5-3.4,2.3c-1.7,1.4-2.4,3.7-1.7,5.8l2.2,6.6
		c-2.1,2.5-3.7,5.4-4.9,8.4l-6.8,1.4c-2.2,0.4-3.8,2.1-4.2,4.3c-0.4,3.2-0.4,6.4,0,9.5c0.3,2.2,2,3.9,4.2,4.3l6.8,1.4
		c1.1,3.1,2.8,5.9,4.9,8.4l-2.2,6.6c-0.7,2.1-0.1,4.4,1.7,5.8c1.1,0.8,2.2,1.6,3.4,2.3l1.3,0.7c1.2,0.7,2.4,1.2,3.6,1.8
		c2.1,0.8,4.4,0.2,5.8-1.4l4.6-5.2c3.2,0.5,6.5,0.5,9.7,0l4.6,5.2l0,0c1.4,1.7,3.8,2.3,5.8,1.4c1.2-0.5,2.4-1.1,3.6-1.8l1.3-0.7
		c1.2-0.7,2.3-1.5,3.4-2.3c1.7-1.4,2.4-3.7,1.7-5.8l-2.2-6.6c2.1-2.5,3.7-5.4,4.9-8.4l6.8-1.4c2.2-0.4,3.9-2.1,4.2-4.3
		C156.7,104.6,156.7,101.4,156.3,98.3z M117.4,114.2L117.4,114.2c-6.2,0-11.2-5-11.2-11.2c0-6.2,5-11.2,11.2-11.2s11.2,5,11.2,11.2
		C128.6,109.2,123.6,114.2,117.4,114.2z"/>
	<path class="st1" d="M89.9,48.7c-0.3-2.2-2-3.9-4.2-4.3L79,43c-1.2-3.1-2.8-5.9-4.9-8.4l2.2-6.6c0.7-2.1,0.1-4.4-1.7-5.8
		c-1.1-0.8-2.2-1.6-3.4-2.3L70,19.2c-1.2-0.7-2.4-1.2-3.6-1.8c-2.1-0.8-4.4-0.2-5.8,1.4L55.9,24c-3.2-0.5-6.5-0.5-9.7,0l-4.6-5.2
		c-1.4-1.7-3.8-2.3-5.8-1.4c-1.2,0.5-2.4,1.1-3.6,1.8l-1.2,0.7c-1.2,0.7-2.3,1.5-3.4,2.3c-1.7,1.4-2.4,3.7-1.7,5.8l2.2,6.6
		c-2.1,2.5-3.7,5.4-4.9,8.4l-6.8,1.4c-2.2,0.4-3.8,2.1-4.2,4.3c-0.4,3.2-0.4,6.4,0,9.5c0.3,2.2,2,3.9,4.2,4.3l6.8,1.4
		c1.1,3.1,2.8,5.9,4.9,8.4L25.8,79c-0.7,2.1-0.1,4.4,1.7,5.8c1.1,0.8,2.2,1.6,3.4,2.3l1.3,0.7c1.2,0.7,2.4,1.2,3.6,1.8
		c2.1,0.8,4.4,0.2,5.8-1.4l4.6-5.2c3.2,0.5,6.5,0.5,9.7,0l4.6,5.2l0,0c1.4,1.7,3.8,2.3,5.8,1.4c1.2-0.5,2.4-1.1,3.6-1.8l1.3-0.7
		c1.2-0.7,2.3-1.5,3.4-2.3c1.7-1.4,2.4-3.7,1.7-5.8l-2.2-6.6c2.1-2.5,3.7-5.4,4.9-8.4l6.8-1.4c2.2-0.4,3.9-2.1,4.2-4.3
		C90.3,55.1,90.3,51.9,89.9,48.7z M51,64.7L51,64.7c-6.2,0-11.2-5-11.2-11.2c0-6.2,5-11.2,11.2-11.2s11.2,5,11.2,11.2
		C62.2,59.7,57.2,64.7,51,64.7z"/>
</g>
<rect x="0.5" y="0.5" class="st2" width="161.2" height="161.2"/>
</svg>
