<?xml version="1.0" encoding="utf-8"?>
<!-- Generator: Adobe Illustrator 26.5.0, SVG Export Plug-In . SVG Version: 6.00 Build 0)  -->
<svg version="1.1" id="Layer_1" xmlns="http://www.w3.org/2000/svg" xmlns:xlink="http://www.w3.org/1999/xlink" x="0px" y="0px"
	 viewBox="0 0 162.2 162.2" style="enable-background:new 0 0 162.2 162.2;" xml:space="preserve">
<style type="text/css">
	.st0{fill:#00ADB9;}
	.st1{fill:#028C95;}
	.st2{fill:none;}
</style>
<g>
	<path id="house-lock-solid" class="st0" d="M92,129c0,2.5,0.7,5,1.9,7.2H92c-4,0-7.2-3.2-7.2-7.2l0,0v-21.8c0-4-3.2-7.2-7.2-7.2
		l0,0H63c-4,0-7.2,3.2-7.2,7.2l0,0V129c0,4-3.2,7.2-7.2,7.2l0,0H26.8c-4,0-7.2-3.2-7.2-7.2l0,0V85.4h-7.3c-4,0-7.2-3.1-7.3-7.1
		c0-0.1,0-0.1,0-0.2c0-2,0.8-4,2.3-5.4l58.1-50.6c1.3-1.3,3.1-1.9,5-1.8c1.7,0,3.4,0.5,4.8,1.6L116.3,58
		c-10.1,3.6-16.9,13.2-16.9,23.9v5.6C94.8,90,92,94.8,92,100V129z"/>
	<path id="house-lock-solid_00000091699264572677802130000014722002896563394987_" class="st1" d="M125.4,74.6c-4,0-7.2,3.2-7.2,7.2
		l0,0v10.9h14.5V81.9C132.6,77.9,129.4,74.6,125.4,74.6L125.4,74.6L125.4,74.6z M107.3,81.9c0-10,8.1-18.1,18.1-18.1
		s18.1,8.1,18.1,18.1v10.9c4,0,7.2,3.2,7.2,7.2l0,0v29c0,4-3.2,7.2-7.2,7.2l0,0h-36.3c-4,0-7.2-3.2-7.2-7.2l0,0v-29
		c0-4,3.2-7.2,7.2-7.2l0,0V81.9H107.3z"/>
</g>
<rect x="0.5" y="0.5" class="st2" width="161.2" height="161.2"/>
</svg>
