<?xml version="1.0" encoding="utf-8"?>
<!-- Generator: Adobe Illustrator 26.5.0, SVG Export Plug-In . SVG Version: 6.00 Build 0)  -->
<svg version="1.1" id="Layer_1" xmlns="http://www.w3.org/2000/svg" xmlns:xlink="http://www.w3.org/1999/xlink" x="0px" y="0px"
	 viewBox="0 0 162.2 162.2" style="enable-background:new 0 0 162.2 162.2;" xml:space="preserve">
<style type="text/css">
	.st0{fill:#00ADB9;}
	.st1{fill:#028C95;}
	.st2{fill:none;}
</style>
<g>
	<path id="globe-solid" class="st0" d="M62.8,60.3c0,2.6-0.1,5.2-0.4,7.8H39.9c-0.3-2.6-0.4-5.2-0.4-7.8c0-2.6,0.1-5.2,0.4-7.8h22.6
		C62.7,55.1,62.8,57.7,62.8,60.3z M66.3,52.5h15c1.3,5.1,1.3,10.5,0,15.6h-15c0.3-2.6,0.4-5.2,0.4-7.8
		C66.7,57.7,66.6,55.1,66.3,52.5z M80,48.6H65.8c-1.2-7.8-3.6-14.3-6.7-18.5C68.6,32.7,76.3,39.5,80,48.6L80,48.6z M61.9,48.6H40.4
		c0.6-4,1.7-7.8,3.3-11.5c0.9-2.3,2.3-4.5,4.1-6.3c0.9-1,2.1-1.6,3.4-1.7c1.3,0.1,2.5,0.7,3.4,1.7c1.7,1.8,3.1,3.9,4.1,6.3
		C60.2,40.8,61.3,44.6,61.9,48.6L61.9,48.6z M36.5,48.6H22.3c3.7-9.1,11.4-15.9,20.9-18.5C40.1,34.3,37.7,40.8,36.5,48.6z M21,52.5
		h15c-0.5,5.2-0.5,10.4,0,15.6H21C19.7,63,19.7,57.6,21,52.5z M43.7,83.5c-1.6-3.7-2.7-7.6-3.3-11.5h21.5c-0.6,4-1.7,7.8-3.3,11.5
		c-1,2.3-2.3,4.5-4.1,6.3c-0.9,1-2.1,1.6-3.4,1.7c-1.3-0.1-2.5-0.7-3.4-1.7C46,88,44.6,85.8,43.7,83.5L43.7,83.5z M36.5,72
		c1.2,7.8,3.6,14.3,6.7,18.5c-9.5-2.5-17.2-9.4-20.9-18.5H36.5z M80,72c-3.7,9.1-11.4,15.9-20.9,18.5c3.1-4.2,5.5-10.7,6.7-18.5
		L80,72L80,72z"/>
	<path id="mobile-screen-button-solid" class="st0" d="M100.9,69.8c0-5.2,4.3-9.5,9.5-9.5h33.2c5.2,0,9.5,4.3,9.5,9.5v57
		c0,5.2-4.3,9.5-9.5,9.5h-33.2c-5.2,0-9.5-4.3-9.5-9.5V69.8z M131.7,126.8c0-2.6-2.1-4.8-4.7-4.8c-2.6,0-4.8,2.1-4.8,4.8
		s2.1,4.8,4.8,4.8C129.6,131.5,131.7,129.4,131.7,126.8C131.7,126.8,131.7,126.8,131.7,126.8z M143.6,69.8h-33.2v47.5h33.2V69.8z"/>
	<path id="spinning1" class="st1" d="M63.9,125.2c-6.4,0-12.6-2.2-17.6-6.3l5.7-5.7c1.1-1.1,1.1-2.8,0-3.9c-0.5-0.5-1.2-0.8-2-0.8
		H30.6c-1.5,0-2.8,1.2-2.8,2.8v19.5c0,1.1,0.7,2.1,1.7,2.6c1,0.4,2.2,0.2,3-0.6l5.9-5.9c8.5,7.4,19.9,10.7,31,9.1v-11.3
		C67.6,125,65.8,125.2,63.9,125.2z"/>
	<path id="spinning2" class="st1" d="M100.5,31.3c6.4,0,12.6,2.2,17.6,6.3l-5.7,5.7c-1.1,1.1-1.1,2.8,0,3.9c0.5,0.5,1.2,0.8,2,0.8
		h19.5c1.5,0,2.8-1.2,2.8-2.8V25.8c0-1.1-0.7-2.1-1.7-2.6c-1-0.4-2.2-0.2-3,0.6l-5.9,5.9c-8.5-7.4-19.9-10.7-31-9.1v11.3
		C96.8,31.5,98.7,31.3,100.5,31.3z"/>
</g>
<rect x="0.5" y="0.5" class="st2" width="161.2" height="161.2"/>
</svg>
