<?xml version="1.0" encoding="utf-8"?>
<!-- Generator: Adobe Illustrator 26.5.0, SVG Export Plug-In . SVG Version: 6.00 Build 0)  -->
<svg version="1.1" id="Layer_1" xmlns="http://www.w3.org/2000/svg" xmlns:xlink="http://www.w3.org/1999/xlink" x="0px" y="0px"
	 viewBox="0 0 189.7 46.5" style="enable-background:new 0 0 189.7 46.5;" xml:space="preserve">
<style type="text/css">
	.st0{fill:#00ADB9;}
	.st1{fill:#FFFFFF;}
	.st2{enable-background:new    ;}
	.st3{fill:#028C95;}
</style>
<g id="Group_1228" transform="translate(-662.757 -447)">
	<path id="Rectangle_613" class="st0" d="M670.8,447h30.5c4.4,0,8,3.6,8,8v30.5c0,4.4-3.6,8-8,8h-30.5c-4.4,0-8-3.6-8-8V455
		C662.8,450.6,666.3,447,670.8,447z"/>
	<g id="Group_1227" transform="translate(667.202 452.709)">
		<path id="Path_84" class="st1" d="M19.6,18.8c-1.1,0-2,0.9-2,2c0,0.8,0.5,1.5,1.2,1.8v10.4c0,0.3-0.3,0.6-0.6,0.6h-3.5
			c-2.3,0-4.1-1.8-4.2-4.1v-16c1-0.5,1.4-1.7,0.9-2.6S9.9,9.4,8.9,9.9c-1,0.5-1.4,1.7-0.9,2.6c0.2,0.4,0.6,0.8,1.1,1v15.9
			c0.1,3.1,2.6,5.6,5.8,5.6h3.5c1.2,0,2.1-1,2.1-2.1V22.5c1-0.5,1.4-1.6,1-2.6C21.1,19.2,20.4,18.8,19.6,18.8L19.6,18.8z"/>
		<path id="Path_85" class="st1" d="M6.1,18.8c-1.1,0-2,0.9-2,2c0,0.8,0.5,1.5,1.2,1.8v10.9c-1.9-0.4-3.3-2-3.4-4l-0.4-14
			c0-1.4,0.6-2.7,1.7-3.5l13.2-9.6c1.5-1.1,3.5-1.1,4.9,0l13.2,9.6c0.6,0.4,1.1,1,1.4,1.7c0.1,0.2,0.1,0.5-0.1,0.7
			c-0.1,0.2-0.4,0.3-0.6,0.3c-0.6,0-1.2-0.2-1.7-0.5L20.3,5.3c0.1-1.1-0.7-2-1.7-2.2c-1.1-0.1-2,0.7-2.2,1.7c-0.1,1.1,0.7,2,1.7,2.2
			c0.1,0,0.1,0,0.2,0c0.4,0,0.8-0.1,1.2-0.4l13.1,8.8c0.8,0.5,1.7,0.8,2.6,0.8c1.3,0,2.3-1,2.3-2.3c0-0.3-0.1-0.6-0.2-0.9
			c-0.4-0.9-1.1-1.7-1.9-2.3L22.3,1.1c-2-1.5-4.8-1.5-6.8,0L2.4,10.7C0.8,11.8,0,13.6,0,15.5l0.4,14c0.1,2.9,2.2,5.2,5.1,5.6
			c0.1,0,0.1,0,0.2,0c0.7,0,1.3-0.6,1.3-1.3c0,0,0,0,0,0V22.5c1-0.4,1.5-1.6,1-2.6C7.6,19.2,6.9,18.8,6.1,18.8L6.1,18.8z"/>
		<path id="Path_86" class="st1" d="M13,17.2v13.1c0,0.4,0.3,0.8,0.8,0.8h0c0.4,0,0.8-0.3,0.8-0.8V17.2c0-1.1,0.5-2.2,1.3-3l1.3-1.2
			c1,0.4,2.1-0.1,2.5-1.1c0.4-1-0.1-2.1-1.1-2.5s-2.1,0.1-2.5,1.1c-0.2,0.5-0.2,1,0,1.4L14.8,13C13.6,14.1,13,15.6,13,17.2z"/>
		<path id="Path_87" class="st1" d="M28.7,16.4L28.7,16.4c-2.3,0.1-4,1.9-4,4.1v12.8c0,0.6,0.5,1.1,1.1,1.1l0,0h5.7
			c0.6,0,1.1-0.5,1.1-1.1c0,0,0,0,0,0V20.5C32.6,18.3,30.9,16.5,28.7,16.4z"/>
		<path id="Path_88" class="st0" d="M28.7,25.5L28.7,25.5c-1,0-1.7,0.8-1.7,1.8v5.5c0,0.3,0.2,0.5,0.5,0.5l0,0h2.4
			c0.3,0,0.5-0.2,0.5-0.5v0v-5.5C30.4,26.3,29.6,25.5,28.7,25.5z"/>
	</g>
	<g class="st2">
		<path class="st3" d="M716.1,459.3h3.2v7.1c1.1-1.3,2.8-2,4.8-2c3.4,0,6.1,2.3,6.1,6.6v9.1H727v-8.6c0-2.8-1.5-4.3-3.9-4.3
			c-2.4,0-3.9,1.5-3.9,4.3v8.6h-3.2V459.3z"/>
		<path class="st3" d="M739.6,480.3c-4.4,0-7.7-3.1-7.7-8c0-4.8,3.5-8,7.9-8s7.9,3.1,7.9,8C747.6,477.1,744,480.3,739.6,480.3z
			 M739.6,477.5c2.4,0,4.7-1.7,4.7-5.2s-2.3-5.2-4.6-5.2c-2.4,0-4.6,1.7-4.6,5.2S737.2,477.5,739.6,477.5z"/>
		<path class="st3" d="M763.3,480h-3.2v-1.8c-1,1.3-2.7,2.1-4.6,2.1c-3.6,0-6.4-2.3-6.4-6.6v-9.1h3.2v8.6c0,2.8,1.5,4.3,3.9,4.3
			c2.4,0,3.9-1.5,3.9-4.3v-8.6h3.2V480z"/>
		<path class="st3" d="M771.7,480.3c-3.7,0-6.3-2.2-6.4-5h3.3c0.1,1.3,1.3,2.3,3.1,2.3c1.8,0,2.8-0.8,2.8-1.8c0-3-9-1.3-9-6.9
			c0-2.5,2.3-4.5,5.9-4.5c3.5,0,5.8,1.9,6,5h-3.2c-0.1-1.3-1.1-2.3-2.9-2.3c-1.7,0-2.6,0.7-2.6,1.7c0,3.1,8.7,1.4,8.9,6.9
			C777.6,478.3,775.3,480.3,771.7,480.3z"/>
		<path class="st3" d="M786.3,480.3c-4.4,0-7.7-3.1-7.7-8c0-4.8,3.1-8,7.7-8c4.4,0,7.5,3.1,7.5,7.6c0,0.5,0,1-0.1,1.6h-11.8
			c0.2,2.5,2,4.1,4.4,4.1c2,0,3.1-1,3.6-2.2h3.4C792.5,478.1,790.1,480.3,786.3,480.3z M781.9,470.9h8.5c-0.1-2.4-1.9-3.9-4.3-3.9
			C784,467,782.3,468.5,781.9,470.9z"/>
	</g>
	<g class="st2">
		<path class="st0" d="M802,464.3c3.8,0,6.2,1.9,7.1,5.1h-3.4c-0.5-1.5-1.8-2.4-3.7-2.4c-2.6,0-4.3,1.9-4.3,5.3
			c0,3.4,1.7,5.3,4.3,5.3c1.9,0,3.1-0.8,3.7-2.4h3.4c-0.9,3-3.3,5.1-7.1,5.1c-4.4,0-7.6-3.1-7.6-8
			C794.5,467.5,797.6,464.3,802,464.3z"/>
		<path class="st0" d="M817.6,480.3c-4.4,0-7.7-3.1-7.7-8c0-4.8,3.5-8,7.9-8c4.4,0,7.9,3.1,7.9,8
			C825.6,477.1,822.1,480.3,817.6,480.3z M817.6,477.5c2.4,0,4.7-1.7,4.7-5.2s-2.3-5.2-4.6-5.2c-2.4,0-4.6,1.7-4.6,5.2
			S815.2,477.5,817.6,477.5z"/>
		<path class="st0" d="M849.3,471.4c0-2.8-1.5-4.3-3.9-4.3c-2.4,0-3.9,1.5-3.9,4.3v8.6h-3.2v-8.6c0-2.8-1.5-4.3-3.9-4.3
			c-2.4,0-3.9,1.5-3.9,4.3v8.6h-3.2v-15.4h3.2v1.8c1-1.3,2.7-2,4.6-2c2.4,0,4.5,1,5.5,3.1c1-1.9,3.1-3.1,5.4-3.1
			c3.6,0,6.4,2.3,6.4,6.6v9.1h-3.2V471.4z"/>
	</g>
</g>
</svg>
