<?xml version="1.0" encoding="utf-8"?>
<!-- Generator: Adobe Illustrator 26.5.0, SVG Export Plug-In . SVG Version: 6.00 Build 0)  -->
<svg version="1.1" id="Layer_1" xmlns="http://www.w3.org/2000/svg" xmlns:xlink="http://www.w3.org/1999/xlink" x="0px" y="0px"
	 viewBox="0 0 195.5 61.2" style="enable-background:new 0 0 195.5 61.2;" xml:space="preserve">
<style type="text/css">
	.st0{fill:#FFFFFF;stroke:#000000;}
	.st1{fill:#383838;}
	.st2{enable-background:new    ;}
</style>
<g id="Group_1178" transform="translate(0.5 0.5)">
	<path id="Path_130" class="st0" d="M189,0H5.5C2.5,0,0,2.5,0,5.5c0,0,0,0,0,0v49.2c0,3.1,2.5,5.5,5.5,5.5c0,0,0,0,0,0H189
		c3.1,0,5.5-2.5,5.5-5.5c0,0,0,0,0,0V5.5C194.5,2.5,192.1,0,189,0C189,0,189,0,189,0z"/>
	<g id="Group_1168" transform="translate(63.807 25.906)">
		<path id="Path_113" class="st1" d="M39.4,6.8c-3.4,0-6.2,2.8-6.2,6.2c0,3.4,2.8,6.2,6.2,6.2s6.2-2.8,6.2-6.2l0,0
			c0.1-3.3-2.6-6.1-5.9-6.2C39.6,6.8,39.5,6.8,39.4,6.8z M39.4,16.7c-2.1-0.1-3.7-2-3.5-4c0.1-1.9,1.6-3.4,3.5-3.5
			c2,0,3.5,1.6,3.5,3.6c0,0.1,0,0.1,0,0.2C43,14.9,41.5,16.6,39.4,16.7C39.4,16.7,39.4,16.7,39.4,16.7z M25.8,6.8
			c-3.4,0-6.2,2.8-6.2,6.2c0,3.4,2.8,6.2,6.2,6.2c3.4,0,6.2-2.8,6.2-6.2l0,0c0.1-3.3-2.6-6.1-5.9-6.2C26,6.8,25.9,6.8,25.8,6.8z
			 M25.8,16.7c-2.1-0.1-3.7-2-3.5-4c0.1-1.9,1.6-3.4,3.5-3.5c2,0,3.5,1.6,3.5,3.6c0,0.1,0,0.1,0,0.2C29.5,14.9,27.9,16.6,25.8,16.7
			C25.9,16.7,25.9,16.7,25.8,16.7z M9.8,8.7v2.6H16c-0.1,1.2-0.6,2.4-1.4,3.3c-1.3,1.3-3,2-4.8,2c-3.8,0-7-3.1-7-6.9
			c0-3.8,3.1-7,6.9-7c1.8,0,3.5,0.7,4.8,1.9l1.8-1.8C14.6,0.9,12.2,0,9.8,0C4.4-0.1,0.1,4.2,0,9.5c-0.1,5.3,4.2,9.7,9.5,9.8
			c0.1,0,0.2,0,0.3,0c2.5,0.1,5-0.9,6.7-2.7c1.5-1.7,2.4-3.9,2.3-6.1c0-0.5,0-1.1-0.1-1.6H9.8V8.7z M75.6,10.7
			c-0.8-2.3-2.9-3.8-5.3-3.9c-3.2,0-5.9,2.6-5.9,5.9c0,0.1,0,0.2,0,0.3c-0.1,3.3,2.6,6.1,5.9,6.2c0.1,0,0.1,0,0.2,0
			c2.1,0,4-1,5.1-2.7L73.6,15c-0.7,1.1-1.8,1.7-3.1,1.7c-1.3,0-2.5-0.7-3-1.9l8.3-3.5L75.6,10.7z M67.2,12.8
			c-0.1-1.8,1.3-3.4,3.1-3.6c0.1,0,0.1,0,0.2,0c1-0.1,1.9,0.4,2.3,1.3L67.2,12.8z M60.5,18.8h2.7V0.6h-2.7V18.8z M56,8.1L56,8.1
			c-0.9-0.9-2.1-1.4-3.3-1.4c-3.4,0.1-6.1,3-5.9,6.4c0.1,3.2,2.7,5.8,5.9,5.9c1.2,0,2.4-0.5,3.3-1.4H56v0.9c0,2.3-1.2,3.6-3.3,3.6
			c-1.4,0-2.6-0.9-3.1-2.2l-2.3,1c0.9,2.2,3.1,3.7,5.5,3.6c3.2,0,5.9-1.9,5.9-6.4V7.1h-2.6L56,8.1L56,8.1z M52.9,16.7
			c-2,0-3.5-1.7-3.5-3.6c0,0,0-0.1,0-0.1c-0.1-2,1.4-3.7,3.4-3.8c0,0,0,0,0,0c2.1,0.2,3.5,2.1,3.3,4.2C56,15.2,54.7,16.5,52.9,16.7
			L52.9,16.7z M88.4,0.6h-6.5v18.2h2.7v-6.8h3.8c3.1,0.2,5.8-2.2,6-5.4c0.2-3.1-2.2-5.8-5.4-6C88.8,0.6,88.6,0.6,88.4,0.6z
			 M88.4,9.4h-3.8V3.1h3.8c1.7,0,3.2,1.3,3.2,3c0,1.7-1.3,3.2-3,3.2C88.5,9.4,88.5,9.4,88.4,9.4z M105.2,6.8c-2-0.1-3.9,1-4.8,2.8
			l2.4,1c0.9-1.4,2.7-1.7,4.1-0.8c0.6,0.4,1.1,1.1,1.2,1.8v0.2c-0.9-0.4-1.8-0.7-2.8-0.7c-2.6,0-5.2,1.4-5.2,4.1c0,2.4,2.1,4,4.5,4
			c1.4,0.1,2.7-0.6,3.5-1.8h0.1v1.4h2.6v-7C110.7,8.5,108.3,6.8,105.2,6.8L105.2,6.8z M104.9,16.7c-0.9,0-2.1-0.5-2.1-1.6
			c0-1.4,1.6-2,2.9-2c0.9,0,1.7,0.2,2.5,0.6C107.9,15.4,106.5,16.7,104.9,16.7L104.9,16.7z M120.3,7.2l-3.1,7.9h-0.1l-3.3-7.9h-2.9
			l4.8,11l-2.7,6.1h2.8l7.5-17.1L120.3,7.2z M95.8,18.8h2.7V0.6h-2.7V18.8z"/>
	</g>
	<g id="Group_1174" transform="translate(14.845 11.416)">
		<g id="Group_1170" transform="translate(0 0.687)">
			<path id="Path_126" class="st1" d="M0.7,0C0.2,0.6,0,1.3,0,2v32.1c0,0.6,0.2,1.2,0.5,1.8l17.8-18L0.7,0z"/>
		</g>
		<g id="Group_1171" transform="translate(1.498 0)">
			<path id="Path_127" class="st1" d="M17.4,17.9l5.5-5.6L2.3,0.5C1.6,0,0.8-0.1,0,0.1L17.4,17.9z"/>
		</g>
		<g id="Group_1172" transform="translate(1.172 19.178)">
			<path id="Path_128" class="st1" d="M17.8,0L0,18c0.8,0.4,1.8,0.3,2.5-0.3l21-11.9L17.8,0z"/>
		</g>
		<g id="Group_1173" transform="translate(19.598 12.798)">
			<path id="Path_129" class="st1" d="M12.4,3.8L5.7,0L0,5.7l5.9,6L12.4,8C14.5,6.9,14.5,5,12.4,3.8z"/>
		</g>
	</g>
	<g class="st2">
		<path d="M76.2,12.2h-1.6c-0.4-0.8-1.2-1.3-2.2-1.3c-1.7,0-2.9,1.2-2.9,3s1.2,3,2.9,3c1.5,0,2.5-0.9,2.7-2.3h-3.1v-1.1h4.6v1.1
			c-0.3,1.9-1.9,3.6-4.1,3.6c-2.4,0-4.3-1.8-4.3-4.3c0-2.5,1.9-4.3,4.3-4.3C74,9.7,75.5,10.6,76.2,12.2z"/>
		<path d="M80.6,18.3c-1.9,0-3.3-1.3-3.3-3.4c0-2.1,1.3-3.4,3.3-3.4c1.9,0,3.2,1.3,3.2,3.3c0,0.2,0,0.4,0,0.7h-5
			c0.1,1.1,0.9,1.8,1.9,1.8c0.8,0,1.3-0.4,1.6-0.9h1.5C83.3,17.4,82.2,18.3,80.6,18.3z M78.7,14.3h3.7c0-1-0.8-1.7-1.8-1.7
			C79.6,12.6,78.9,13.2,78.7,14.3z"/>
		<path d="M85.4,12.7h-0.8v-1.1h0.8V9.9h1.4v1.6h1.6v1.1h-1.6v3.7c0,0.5,0.2,0.7,0.8,0.7h0.8v1.1h-1.1c-1.2,0-1.9-0.5-1.9-1.8V12.7z
			"/>
		<path d="M92.6,9.8c0-0.5,0.4-0.9,0.9-0.9c0.5,0,0.9,0.4,0.9,0.9s-0.4,0.9-0.9,0.9C92.9,10.7,92.6,10.3,92.6,9.8z M92.7,11.6h1.4
			v6.6h-1.4V11.6z"/>
		<path d="M96.1,12.7h-0.8v-1.1h0.8V9.9h1.4v1.6h1.6v1.1h-1.6v3.7c0,0.5,0.2,0.7,0.8,0.7h0.8v1.1H98c-1.2,0-1.9-0.5-1.9-1.8V12.7z"
			/>
		<path d="M106.4,18.3c-1.9,0-3.3-1.3-3.3-3.4c0-2.1,1.5-3.4,3.4-3.4c1.9,0,3.4,1.3,3.4,3.4C109.8,16.9,108.3,18.3,106.4,18.3z
			 M106.4,17.1c1,0,2-0.7,2-2.2c0-1.5-1-2.2-2-2.2c-1,0-2,0.7-2,2.2C104.4,16.4,105.3,17.1,106.4,17.1z"/>
		<path d="M115.8,14.5c0-1.2-0.7-1.8-1.7-1.8c-1,0-1.7,0.6-1.7,1.8v3.7h-1.4v-6.6h1.4v0.8c0.4-0.5,1.2-0.9,2-0.9
			c1.5,0,2.7,1,2.7,2.8v3.9h-1.4V14.5z"/>
	</g>
</g>
</svg>
