<?xml version="1.0" encoding="utf-8"?>
<!-- Generator: Adobe Illustrator 26.5.0, SVG Export Plug-In . SVG Version: 6.00 Build 0)  -->
<svg version="1.1" id="Layer_1" xmlns="http://www.w3.org/2000/svg" xmlns:xlink="http://www.w3.org/1999/xlink" x="0px" y="0px"
	 viewBox="0 0 195.5 61.2" style="enable-background:new 0 0 195.5 61.2;" xml:space="preserve">
<style type="text/css">
	.st0{fill:#FFFFFF;stroke:#000000;}
	.st1{fill:#383838;}
	.st2{enable-background:new    ;}
</style>
<g id="Group_1177" transform="translate(0.5 0.5)">
	<path id="Path_89" class="st0" d="M189,0H5.5C2.5,0,0,2.5,0,5.5c0,0,0,0,0,0v49.2c0,3.1,2.5,5.5,5.5,5.5c0,0,0,0,0,0H189
		c3.1,0,5.5-2.5,5.5-5.5c0,0,0,0,0,0V5.5C194.5,2.5,192.1,0,189,0C189,0,189,0,189,0z"/>
	<g id="Group_1164" transform="translate(17.565 8.659)">
		<path id="Path_90" class="st1" d="M25.3,19.9c0-2.9,1.6-5.6,4-7.1c-1.6-2.2-4.1-3.6-6.8-3.7c-2.9-0.3-5.7,1.7-7.1,1.7
			c-1.5,0-3.8-1.7-6.2-1.6C6.1,9.2,3.2,11,1.6,13.8c-3.3,5.7-0.8,14.1,2.3,18.8c1.6,2.3,3.5,4.8,5.9,4.7c2.3-0.1,3.3-1.5,6.1-1.5
			s3.6,1.5,6.1,1.4c2.5-0.1,4.2-2.3,5.7-4.6c1.1-1.6,2-3.4,2.6-5.3C27.3,26,25.4,23.1,25.3,19.9"/>
		<path id="Path_91" class="st1" d="M20.7,6c1.4-1.7,2.1-3.8,1.9-6c-2.1,0.2-4.1,1.2-5.5,2.9c-1.4,1.6-2.1,3.6-2,5.7
			C17.3,8.6,19.3,7.7,20.7,6"/>
	</g>
	<g id="Group_1165" transform="translate(63.807 25.848)">
		<path id="Path_92" class="st1" d="M16.3,19.7H13l-1.8-5.7H4.9l-1.7,5.7H0L6.3,0.3h3.8L16.3,19.7z M10.7,11.7L9.1,6.6
			c-0.2-0.5-0.5-1.8-1-3.6H8c-0.2,0.8-0.5,2-0.9,3.6l-1.6,5.1L10.7,11.7z"/>
		<path id="Path_93" class="st1" d="M32.4,12.6c0.1,2.1-0.6,4.1-2,5.7c-1.1,1.2-2.7,1.9-4.3,1.8c-1.6,0.1-3.1-0.6-4-2h-0.1v7.4h-3.1
			V10.4c0-1.5-0.1-3-0.1-4.6h2.7l0.2,2.2h0.1c1-1.6,2.8-2.6,4.7-2.5c1.6,0,3.1,0.7,4.1,2C31.9,8.8,32.5,10.7,32.4,12.6 M29.2,12.7
			c0-1.2-0.3-2.4-0.9-3.4c-0.6-0.9-1.6-1.4-2.7-1.4c-0.8,0-1.5,0.3-2.1,0.8c-0.6,0.5-1.1,1.2-1.2,2c-0.1,0.3-0.1,0.6-0.1,1v2.3
			c0,0.9,0.3,1.9,0.9,2.6c0.6,0.7,1.5,1.1,2.4,1c1.1,0,2.1-0.5,2.7-1.4C28.9,15.2,29.2,14,29.2,12.7"/>
		<path id="Path_94" class="st1" d="M48.4,12.6c0.1,2.1-0.6,4.1-2,5.7c-1.1,1.2-2.7,1.9-4.3,1.8c-1.6,0.1-3.1-0.6-4-2h-0.1v7.4H35
			V10.4c0-1.5-0.1-3-0.1-4.6h2.7l0.2,2.2h0.1c1-1.6,2.8-2.6,4.7-2.5c1.6,0,3.1,0.7,4.1,2C47.9,8.8,48.5,10.7,48.4,12.6 M45.3,12.7
			c0-1.2-0.3-2.4-0.9-3.4c-0.6-0.9-1.6-1.4-2.7-1.4c-0.8,0-1.5,0.3-2.1,0.8c-0.6,0.5-1.1,1.2-1.2,2c-0.1,0.3-0.1,0.6-0.1,1v2.3
			c0,0.9,0.3,1.9,0.9,2.6c0.6,0.7,1.5,1.1,2.4,1c1.1,0,2.1-0.5,2.7-1.4C45,15.2,45.3,14,45.3,12.7"/>
		<path id="Path_95" class="st1" d="M66.4,14.3c0,1.5-0.6,3-1.7,4c-1.5,1.2-3.4,1.8-5.3,1.7c-1.8,0.1-3.5-0.3-5-1.2l0.7-2.6
			c1.3,0.8,2.9,1.3,4.5,1.2c1,0.1,1.9-0.2,2.7-0.8c0.7-0.5,1-1.3,1-2.1c0-0.7-0.3-1.5-0.8-2c-0.8-0.7-1.7-1.2-2.7-1.5
			c-3.4-1.2-5.1-3.1-5.1-5.5c0-1.5,0.6-2.9,1.8-3.9c1.3-1.1,3-1.6,4.7-1.5c1.5,0,3,0.3,4.4,0.9L65,3.5c-1.1-0.6-2.4-0.9-3.7-0.9
			c-0.9-0.1-1.8,0.2-2.5,0.8c-0.5,0.4-0.8,1.1-0.8,1.8c0,0.7,0.3,1.4,0.9,1.9c0.8,0.7,1.8,1.2,2.8,1.5c1.4,0.5,2.7,1.3,3.7,2.3
			C66,11.8,66.4,13,66.4,14.3"/>
		<path id="Path_96" class="st1" d="M76.7,8.1h-3.5v6.8c0,1.7,0.6,2.6,1.8,2.6c0.5,0,0.9,0,1.4-0.1l0.1,2.3
			c-0.8,0.3-1.6,0.4-2.4,0.3C73,20,72,19.6,71.2,18.9c-0.7-0.7-1-2-1-3.8v-7h-2V5.7h2V3.2l3.1-0.9v3.5h3.5V8.1z"/>
		<path id="Path_97" class="st1" d="M92.1,12.6c0.1,1.9-0.6,3.8-1.8,5.3c-1.3,1.4-3.2,2.2-5.1,2.1c-1.9,0.1-3.6-0.6-4.9-2
			c-1.2-1.4-1.9-3.3-1.8-5.1c-0.1-2,0.6-3.9,1.9-5.3c1.3-1.4,3.2-2.2,5.1-2.1c1.9-0.1,3.7,0.7,4.9,2C91.6,8.9,92.2,10.8,92.1,12.6
			 M88.9,12.7c0-1.2-0.2-2.3-0.8-3.3c-0.5-1.1-1.6-1.7-2.8-1.7c-1.2,0-2.3,0.6-2.9,1.7c-0.6,1-0.9,2.2-0.8,3.4
			c0,1.2,0.2,2.3,0.8,3.3c0.5,1,1.6,1.7,2.8,1.7c1.2,0,2.2-0.7,2.8-1.7C88.6,15.1,88.9,13.9,88.9,12.7"/>
		<path id="Path_98" class="st1" d="M102.2,8.5c-0.3-0.1-0.6-0.1-1-0.1c-1-0.1-2,0.4-2.5,1.2c-0.5,0.8-0.8,1.8-0.8,2.7v7.4h-3.1
			v-9.6c0-1.6-0.1-3.1-0.1-4.4h2.7l0.1,2.7h0.1c0.3-0.9,0.8-1.6,1.6-2.2c0.6-0.5,1.4-0.8,2.2-0.8c0.3,0,0.5,0,0.8,0.1L102.2,8.5
			L102.2,8.5z"/>
		<path id="Path_99" class="st1" d="M116.1,12c0,0.5,0,1-0.1,1.4h-9.3c0,1.2,0.5,2.4,1.4,3.2c0.9,0.7,2,1,3.1,1
			c1.3,0,2.6-0.2,3.8-0.7l0.5,2.1c-1.5,0.6-3.1,0.9-4.7,0.8c-1.9,0.1-3.7-0.6-5.1-1.9c-1.3-1.4-1.9-3.3-1.8-5.1
			c-0.1-1.9,0.6-3.8,1.8-5.3c1.2-1.5,3-2.3,4.9-2.2c1.8-0.1,3.5,0.7,4.6,2.2C115.7,9,116.1,10.5,116.1,12 M113.1,11.3
			c0-0.8-0.2-1.7-0.6-2.4C112,8,111,7.5,110,7.6c-1,0-1.9,0.5-2.5,1.2c-0.5,0.7-0.9,1.5-0.9,2.4L113.1,11.3L113.1,11.3z"/>
	</g>
	<g class="st2">
		<path d="M75,13.4c0,2.6-1.8,4.1-4.4,4.1h-2.7V9.2h2.7C73.3,9.2,75,10.8,75,13.4z M70.6,16.4c2,0,3-1.1,3-3c0-1.9-1.1-3.1-3-3.1
			h-1.4v6.1H70.6z"/>
		<path d="M79.3,17.7c-1.9,0-3.3-1.3-3.3-3.4c0-2.1,1.5-3.4,3.4-3.4c1.9,0,3.4,1.3,3.4,3.4C82.7,16.3,81.2,17.7,79.3,17.7z
			 M79.3,16.5c1,0,2-0.7,2-2.2c0-1.5-1-2.2-2-2.2c-1,0-2,0.7-2,2.2C77.4,15.7,78.2,16.5,79.3,16.5z"/>
		<path d="M83.3,11h1.4l1.4,5.3l1.4-5.3h1.4l1.3,5.3l1.4-5.3h1.3l-2.1,6.6h-1.4l-1.3-4.9l-1.3,4.9h-1.4L83.3,11z"/>
		<path d="M98.7,13.9c0-1.2-0.7-1.8-1.7-1.8c-1,0-1.7,0.6-1.7,1.8v3.7H94V11h1.4v0.8c0.4-0.5,1.2-0.9,2-0.9c1.5,0,2.7,1,2.7,2.8v3.9
			h-1.4V13.9z"/>
		<path d="M101.8,8.7h1.4v8.9h-1.4V8.7z"/>
		<path d="M107.8,17.7c-1.9,0-3.3-1.3-3.3-3.4c0-2.1,1.5-3.4,3.4-3.4s3.4,1.3,3.4,3.4C111.2,16.3,109.7,17.7,107.8,17.7z
			 M107.8,16.5c1,0,2-0.7,2-2.2c0-1.5-1-2.2-2-2.2c-1,0-2,0.7-2,2.2C105.9,15.7,106.8,16.5,107.8,16.5z"/>
		<path d="M115.2,10.8c1.1,0,1.9,0.5,2.3,1.1v-1h1.4v6.6h-1.4v-1c-0.4,0.6-1.2,1.1-2.3,1.1c-1.7,0-3.1-1.4-3.1-3.4
			S113.5,10.8,115.2,10.8z M115.5,12c-1,0-2,0.8-2,2.2c0,1.4,1,2.3,2,2.3c1,0,2-0.8,2-2.2C117.5,12.8,116.6,12,115.5,12z"/>
		<path d="M123.4,10.8c0.9,0,1.8,0.4,2.3,1V8.7h1.4v8.9h-1.4v-1c-0.4,0.6-1.2,1.1-2.3,1.1c-1.7,0-3.1-1.4-3.1-3.4
			S121.6,10.8,123.4,10.8z M123.7,12c-1,0-2,0.8-2,2.2c0,1.4,1,2.3,2,2.3c1,0,2-0.8,2-2.2C125.7,12.8,124.7,12,123.7,12z"/>
		<path d="M134.8,17.7c-1.9,0-3.3-1.3-3.3-3.4c0-2.1,1.5-3.4,3.4-3.4s3.4,1.3,3.4,3.4C138.3,16.3,136.7,17.7,134.8,17.7z
			 M134.8,16.5c1,0,2-0.7,2-2.2c0-1.5-1-2.2-2-2.2c-1,0-2,0.7-2,2.2C132.9,15.7,133.8,16.5,134.8,16.5z"/>
		<path d="M144.3,13.9c0-1.2-0.7-1.8-1.7-1.8c-1,0-1.7,0.6-1.7,1.8v3.7h-1.4V11h1.4v0.8c0.4-0.5,1.2-0.9,2-0.9c1.5,0,2.7,1,2.7,2.8
			v3.9h-1.4V13.9z"/>
	</g>
</g>
</svg>
