<?xml version="1.0" encoding="utf-8"?>
<!-- Generator: Adobe Illustrator 26.5.0, SVG Export Plug-In . SVG Version: 6.00 Build 0)  -->
<svg version="1.1" id="Layer_1" xmlns="http://www.w3.org/2000/svg" xmlns:xlink="http://www.w3.org/1999/xlink" x="0px" y="0px"
	 viewBox="0 0 490 550" style="enable-background:new 0 0 490 550;" xml:space="preserve">
<style type="text/css">
	.st0{fill:#F9F9F9;}
</style>
<path id="mask" class="st0" d="M490,0.3L490,0.3V0H0v0.3l0,0V550l490-0.3V0.3z M468.6,337.2h-84.4V253h84.4L468.6,337.2z
	 M287.2,458.7h-84.4V373h84.4V458.7z M112.1,458.7V373h84.4v85.7L112.1,458.7z M21.4,128.4h84.4v86.9H21.4V128.4z M112.1,366.8
	V189.2h84.4v177.6H112.1z M112.1,182.6V96.9h84.4v85.7L112.1,182.6z M21.4,221.6h84.4v176.7H21.4V221.6z M202.8,366.8V189.2h84.4
	v177.6H202.8z M377.9,274.2h-84.4V96.9h84.4V274.2z M293.5,280.5h84.4v86.3h-84.4V280.5z M468.6,246.8h-84.4v-86.3h84.4L468.6,246.8
	z M377.9,90.7h-84.4V6.2h84.4V90.7z M287.2,182.6h-84.4V6.2h84.4V182.6z M293.5,373h84.4v170.5h-84.4L293.5,373z M384.1,458.7V343.4
	h84.4v115.3L384.1,458.7z M468.6,154.2h-84.4V67.6h84.4V154.2z"/>
</svg>
