<?xml version="1.0" encoding="utf-8"?>
<!-- Generator: Adobe Illustrator 26.5.0, SVG Export Plug-In . SVG Version: 6.00 Build 0)  -->
<svg version="1.1" id="Layer_1" xmlns="http://www.w3.org/2000/svg" xmlns:xlink="http://www.w3.org/1999/xlink" x="0px" y="0px"
	 viewBox="0 0 143.5 27" style="enable-background:new 0 0 143.5 27;" xml:space="preserve">
<style type="text/css">
	.st0{enable-background:new    ;}
	.st1{fill:#343131;}
	.st2{fill:#F66C0F;}
</style>
<g id="Group_20" transform="translate(-114 -27)">
	<g class="st0">
		<path class="st1" d="M150.9,33.1h4.1v6.4h5.6v-6.4h4V50h-4v-7H155v7h-4.1V33.1z"/>
		<path class="st1" d="M167.6,46.4c0-2.7,2.1-4.2,7.2-4.7c-0.1-1.1-0.7-1.7-2-1.7c-1,0-2.1,0.4-3.4,1.1l-1.4-2.6
			c1.7-1,3.5-1.7,5.6-1.7c3.3,0,5.2,1.8,5.2,5.9V50h-3.3l-0.3-1.3h-0.1c-1.1,1-2.2,1.6-3.7,1.6C169.1,50.3,167.6,48.5,167.6,46.4z
			 M174.8,46.2v-2.1c-2.6,0.3-3.4,1-3.4,2c0,0.8,0.5,1.1,1.4,1.1C173.7,47.2,174.2,46.8,174.8,46.2z"/>
		<path class="st1" d="M181.3,43.5c0-4.3,3.2-6.8,6.8-6.8c1.6,0,2.8,0.5,3.8,1.4l-1.9,2.5c-0.6-0.4-1.1-0.6-1.7-0.6
			c-1.8,0-2.9,1.4-2.9,3.5c0,2.2,1.2,3.5,2.8,3.5c0.9,0,1.6-0.3,2.2-0.8l1.6,2.5c-1.2,1.1-2.9,1.5-4.3,1.5
			C184,50.3,181.3,47.8,181.3,43.5z"/>
		<path class="st1" d="M194.2,31.8h4V42h0.1l3.8-4.9h4.4l-4.5,5.4l4.8,7.5h-4.4l-2.8-4.9l-1.5,1.7V50h-4V31.8z"/>
		<path class="st1" d="M207.8,46.4c0-2.7,2.1-4.2,7.2-4.7c-0.1-1.1-0.7-1.7-2-1.7c-1,0-2.1,0.4-3.4,1.1l-1.4-2.6
			c1.7-1,3.5-1.7,5.6-1.7c3.3,0,5.2,1.8,5.2,5.9V50h-3.3l-0.3-1.3h-0.1c-1.1,1-2.2,1.6-3.7,1.6C209.2,50.3,207.8,48.5,207.8,46.4z
			 M215,46.2v-2.1c-2.6,0.3-3.4,1-3.4,2c0,0.8,0.5,1.1,1.4,1.1C213.8,47.2,214.3,46.8,215,46.2z"/>
		<path class="st1" d="M222.1,45.2v-5h-1.7v-3l2-0.1l0.5-4h3.3v4h3v3.1h-3v4.9c0,1.5,0.7,2,1.6,2c0.4,0,0.9-0.1,1.2-0.2l0.6,2.8
			c-0.7,0.3-1.7,0.5-2.9,0.5C223.5,50.3,222.1,48.3,222.1,45.2z"/>
		<path class="st1" d="M230.5,43.5c0-4.3,3-6.8,6.3-6.8c3.3,0,6.3,2.5,6.3,6.8c0,4.3-3,6.8-6.3,6.8
			C233.5,50.3,230.5,47.8,230.5,43.5z M239,43.5c0-2.1-0.7-3.5-2.2-3.5c-1.5,0-2.2,1.4-2.2,3.5c0,2.2,0.7,3.5,2.2,3.5
			C238.3,47.1,239,45.7,239,43.5z"/>
		<path class="st1" d="M245.7,37.1h3.3l0.3,1.6h0.1c1.1-1,2.4-1.9,4.1-1.9c2.8,0,4,2,4,5.2v8h-4v-7.5c0-1.8-0.5-2.3-1.5-2.3
			c-0.9,0-1.5,0.4-2.3,1.2V50h-4V37.1z"/>
	</g>
	<rect id="Rectangle_17" x="114" y="27" class="st2" width="29" height="27"/>
</g>
</svg>
